<svg xmlns="http://www.w3.org/2000/svg" width="18.671" height="17.348"><path fill-rule="evenodd" fill="#FFF" d="M13.586 7.361c-.03.416-.36.762-.792.762h-.017c-.438 0-.819-.338-.843-.762h-.008V5.28l.003-.17c.135-1.982-1.624-3.656-3.66-3.48-1.315.114-2.417 1.027-2.854 2.244l-.18.501c-.124.348-.472.509-.848.477l-.642.009c-.047-.004-.095-.009-.143-.009-.967 0-1.773.812-1.677 1.776v.638c0 .443-.345.822-.798.822h-.016c-.453 0-.848-.36-.848-.803v-.808c0-1.788 1.511-3.242 3.339-3.242.096 0 .19.006.283.014C4.63 1.175 6.768-.258 9.206.038c2.259.276 4.07 2.091 4.302 4.304.033.32.061.633.075.938h.009v2.081h-.006zM5.059 9.209l.932.905.107.017V7.303c0-.445.368-.804.821-.804h.016c.454 0 .821.359.821.804v2.951l1.072-1.07a.847.847 0 0 1 1.174 0 .79.79 0 0 1 0 1.14l-2.459 2.437a.844.844 0 0 1-1.174 0l-2.516-2.444a.791.791 0 0 1 .105-1.227c.337-.236.807-.166 1.101.119z"/></svg>