<svg xmlns="http://www.w3.org/2000/svg" width="19.994" height="17.348"><path fill-rule="evenodd" fill="#FFF" d="M7.502 12.187c-2.718 0-5.435-1.896-7.497-5.687C2.067 2.708 4.784.812 7.502.812S12.938 2.708 15 6.5c-2.062 3.791-4.78 5.687-7.498 5.687zm0-9.75c-1.976 0-3.981 1.469-5.584 4.063 1.603 2.593 3.608 4.062 5.584 4.062 1.977 0 3.982-1.469 5.585-4.062-1.603-2.594-3.608-4.063-5.585-4.063zm0 5.688c-.92 0-1.666-.728-1.666-1.625 0-.898.746-1.625 1.666-1.625.92 0 1.666.727 1.666 1.625 0 .897-.746 1.625-1.666 1.625z"/></svg>